<?xml version="1.0" standalone="no"?><!DOCTYPE svg PUBLIC "-//W3C//DTD SVG 1.1//EN" "http://www.w3.org/Graphics/SVG/1.1/DTD/svg11.dtd"><svg class="icon" width="200px" height="200.00px" viewBox="0 0 1024 1024" version="1.1" xmlns="http://www.w3.org/2000/svg"><path fill="#ffffff" d="M755.762918 780.20551v-48.758898a24.379449 24.379449 0 0 1 48.758898 0v48.758898h48.758898a24.379449 24.379449 0 0 1 0 48.758898h-48.758898v48.758898a24.379449 24.379449 0 0 1-48.758898 0v-48.758898h-48.758898a24.379449 24.379449 0 0 1 0-48.758898h48.758898z m123.847601-224.729761a266.223583 266.223583 0 0 0-53.390993-15.115258l123.43315-126.504961-290.017925-44.297458a24.379449 24.379449 0 0 1-18.382104-13.75001L512.651053 81.831815l-128.601593 273.976247a24.379449 24.379449 0 0 1-18.382105 13.75001L75.64943 413.85553l210.638439 215.92878a24.379449 24.379449 0 0 1 6.631211 20.941947l-49.490282 303.280345 257.422602-142.302844a24.379449 24.379449 0 0 1 11.141408-3.023051c0.292553 19.04035 2.559842 37.61749 6.63121 55.512005l-5.972965-3.291226L223.071958 1020.952569a24.379449 24.379449 0 0 1-35.83779-25.257109L242.819312 655.01704 7.606388 413.953048a24.379449 24.379449 0 0 1 13.774389-41.12813l324.051636-49.490282L490.587652 14.056946a24.379449 24.379449 0 0 1 44.126803 0l145.155239 309.228931 324.051636 49.514661a24.379449 24.379449 0 0 1 13.774388 41.128131l-138.085199 141.522701zM780.142367 1024a219.415041 219.415041 0 1 1 0-438.830082 219.415041 219.415041 0 0 1 0 438.830082z m0-48.758898a170.656143 170.656143 0 1 0 0-341.312286 170.656143 170.656143 0 0 0 0 341.312286z" /></svg>